<svg height='100px' width='100px'  fill="#000000" xmlns="http://www.w3.org/2000/svg" xmlns:xlink="http://www.w3.org/1999/xlink" version="1.1" x="0px" y="0px" viewBox="0 0 68 68" enable-background="new 0 0 68 68" xml:space="preserve"><g><path d="M7.3,60.5H37V65c0,0.2,0.1,0.4,0.3,0.5c0.1,0,0.1,0,0.2,0c0.1,0,0.3-0.1,0.4-0.2l2.6-2.7l2.7,2.7c0.1,0.1,0.4,0.2,0.5,0.1   c0.2-0.1,0.3-0.3,0.3-0.5v-4.5h5.2c3,0,5.5-2.5,5.5-5.5l0-37h10.8c0.3,0,0.5-0.2,0.5-0.5V8.6c0-3.4-2.7-6.1-6.1-6.1c0,0,0,0,0,0   H18.2c-5,0-9,4-9,9l0,40.1H2.5c-0.3,0-0.5,0.2-0.5,0.5v3C2,58.1,4.4,60.5,7.3,60.5z M34.7,49.8c0-3.2,2.6-5.8,5.8-5.8   c3.2,0,5.8,2.6,5.8,5.8c0,1.9-0.9,3.6-2.4,4.7l0,0c-0.1,0-2,1.6-4.8,0.9C36.6,54.8,34.7,52.5,34.7,49.8z M43,63.8l-2.2-2.2   c-0.1-0.1-0.2-0.1-0.4-0.1c0,0,0,0,0,0c-0.1,0-0.3,0.1-0.4,0.2L38,63.8V60v-3.9c0.8,0.1,2.1,1,5,0V60V63.8z M44,59.5V57   c0.4,1,1.2,2,2,2.5H44z M65,8.6v8.3H54.7l0-8.3c0-2.8,2.3-5.1,5.1-5.1C62.7,3.5,65,5.8,65,8.6z M10.2,11.5c0-4.4,3.6-8,8-8h38.3   c-0.1,0.1-2.8,1.8-2.8,5.1v8.8c0,0,0,0,0,0l0,35.5c0,1,0,1.6,0,2h0c0,2.5-2,4.5-4.5,4.5l-0.1,0c-2.2,0-4.3-1.8-4.4-4.4   c1.6-1.3,2.6-3.2,2.6-5.3c0-3.7-3-6.8-6.8-6.8c-3.7,0-6.8,3-6.8,6.8c0,0.6,0.1,1.3,0.3,1.9H10.2L10.2,11.5z M3,52.7h6.7h24.7   c0.5,1.1,1.4,2.2,2.6,2.9v3.9H7.3c-2.4,0-4.3-1.9-4.3-4.3V52.7z"></path><path d="M22.1,15.9h24.8c0.3,0,0.5-0.2,0.5-0.5c0-0.3-0.2-0.5-0.5-0.5H22.1c-0.3,0-0.5,0.2-0.5,0.5C21.6,15.7,21.8,15.9,22.1,15.9z   "></path><path d="M17.1,20.9h29.8c0.3,0,0.5-0.2,0.5-0.5c0-0.3-0.2-0.5-0.5-0.5H17.1c-0.3,0-0.5,0.2-0.5,0.5C16.6,20.7,16.8,20.9,17.1,20.9z   "></path><path d="M17.1,25.9h29.8c0.3,0,0.5-0.2,0.5-0.5c0-0.3-0.2-0.5-0.5-0.5H17.1c-0.3,0-0.5,0.2-0.5,0.5C16.6,25.7,16.8,25.9,17.1,25.9z   "></path><path d="M17.1,30.9h29.8c0.3,0,0.5-0.2,0.5-0.5c0-0.3-0.2-0.5-0.5-0.5H17.1c-0.3,0-0.5,0.2-0.5,0.5C16.6,30.7,16.8,30.9,17.1,30.9z   "></path><path d="M17.1,35.9h29.8c0.3,0,0.5-0.2,0.5-0.5c0-0.3-0.2-0.5-0.5-0.5H17.1c-0.3,0-0.5,0.2-0.5,0.5C16.6,35.7,16.8,35.9,17.1,35.9z   "></path><path d="M17.1,40.9h29.8c0.3,0,0.5-0.2,0.5-0.5c0-0.3-0.2-0.5-0.5-0.5H17.1c-0.3,0-0.5,0.2-0.5,0.5C16.6,40.7,16.8,40.9,17.1,40.9z   "></path><path d="M30,44.9H17.1c-0.3,0-0.5,0.2-0.5,0.5c0,0.3,0.2,0.5,0.5,0.5H30c0.3,0,0.5-0.2,0.5-0.5C30.5,45.1,30.3,44.9,30,44.9z"></path><path d="M40.5,53.2c1.9,0,3.4-1.5,3.4-3.4c0-1.9-1.5-3.4-3.4-3.4s-3.4,1.5-3.4,3.4C37.1,51.7,38.6,53.2,40.5,53.2z M40.5,47.4   c1.3,0,2.4,1.1,2.4,2.4c0,1.3-1.1,2.4-2.4,2.4s-2.4-1.1-2.4-2.4C38.1,48.5,39.2,47.4,40.5,47.4z"></path></g></svg>