<svg class = "help__icons" xmlns="http://www.w3.org/2000/svg" xmlns:xlink="http://www.w3.org/1999/xlink" version="1.1" x="0px" y="0px" viewBox="0 0 100 100" enable-background="new 0 0 100 100" xml:space="preserve"><path d="M57.226,30.979c8.744-3.337,11.479-10.642,12.905-17.657l0.233-1.144l-1.162-0.108c-0.63-0.059-1.262-0.089-1.882-0.089  c-5.054,0-9.665,1.982-12.982,5.583c-3.19,3.46-4.9,8.132-4.775,12.953c-14.984,1.08-26.848,13.616-26.848,28.873  c0,15.961,12.987,28.948,28.949,28.948c15.962,0,28.946-12.987,28.946-28.948C80.61,45.329,70.535,33.58,57.226,30.979z   M55.878,18.984c2.918-3.165,6.981-4.908,11.442-4.908c0.168,0,0.335,0.002,0.505,0.007c-1.692,7.479-5.07,14.391-16.171,16.203  C51.588,26.07,53.096,22.002,55.878,18.984z M51.664,86.242c-14.807,0-26.853-12.046-26.853-26.853  c0-14.147,10.997-25.773,24.892-26.782l0.005,0.058l0.819-0.104c0.377-0.016,0.755-0.026,1.137-0.026  c14.806,0,26.851,12.046,26.851,26.853C78.515,74.196,66.47,86.242,51.664,86.242z"></path><path d="M97.644,47.85c0,0,2.455-22.73,2.806-30.34c0.142-3.05-2.483-5.536-5.536-5.536c-2.313,0-4.143,1.499-5.119,3.451  c-1.108,2.213-5.644,9.921-6.415,18.247c-0.636,6.86,1.729,12.024,2.756,13.896l-2.83,33.86c0,4.727,3.845,8.572,8.571,8.572  c4.729,0,8.573-3.846,8.573-8.572L97.644,47.85z M91.876,87.89c-3.553,0-6.446-2.887-6.461-6.44l2.866-34.242  c0,0-3.6-6.503-2.802-13.341c0.973-8.333,6.387-17.889,6.387-17.889c0.563-1.117,1.712-1.894,3.047-1.894  c1.881,0,3.41,1.524,3.424,3.401l-2.813,30.346l2.814,33.618C98.325,85.003,95.432,87.89,91.876,87.89z"></path><path d="M17.104,46.875c3.502-2.039,5.666-5.721,5.666-9.814l-2.007-21.979c0-1.592-1.294-2.887-2.885-2.887  c-0.728,0-1.385,0.279-1.893,0.725c-0.605-0.584-1.424-0.948-2.33-0.948c-0.895,0-1.704,0.356-2.306,0.928  c-0.603-0.572-1.412-0.928-2.306-0.928c-0.885,0-1.686,0.351-2.288,0.912c-0.501-0.422-1.14-0.688-1.847-0.688  c-1.592,0-2.887,1.295-2.887,2.887L0,37.061c0,4.093,2.164,7.775,5.666,9.814L2.813,81.021c0,4.727,3.844,8.571,8.572,8.571  c4.727,0,8.572-3.845,8.572-8.571L17.104,46.875z M11.385,87.482c-3.555,0-6.448-2.887-6.461-6.438l2.942-35.45l-0.627-0.235  c-3.134-1.569-5.087-4.708-5.123-8.205l2.029-22.133c0.032-0.399,0.357-0.71,0.764-0.717c0.797-0.014,0.799,0.777,0.799,0.777  c-0.006,0.084,0.006,21.979,0.006,21.979h2.11V15.175c0.081-0.613,0.585-1.094,1.22-1.094c0.645,0,1.159,0.498,1.225,1.126  l0.061,21.856l2.11-0.006l-0.036-21.725h0.001c0-0.001,0-0.002,0-0.003c0.002-0.689,0.562-1.249,1.251-1.249  c0.69,0,1.251,0.562,1.251,1.252l0.038,21.728h2.11l0.045-21.979c0-0.429,0.349-0.777,0.777-0.777c0.407,0,0.731,0.318,0.762,0.718  l2.013,22.132c-0.035,3.497-1.988,6.636-5.123,8.205l-0.643,0.351l2.958,35.334C17.833,84.596,14.939,87.482,11.385,87.482z"></path></svg>