<svg height='100px' width='100px'  fill="#000000" xmlns="http://www.w3.org/2000/svg" xmlns:xlink="http://www.w3.org/1999/xlink" version="1.1" x="0px" y="0px" viewBox="0 0 409 162.355" style="enable-background:new 0 0 409 162.355;" xml:space="preserve"><g><ellipse transform="matrix(0.1855 -0.9826 0.9826 0.1855 236.1475 429.6411)" cx="377.249" cy="72.368" rx="22.5" ry="22.5"></ellipse><path d="M338.905,72.325c-1.122-4.272-5.492-6.83-9.769-5.708c-4.273,1.121-6.829,5.495-5.708,9.769l17.667,67.333   c0.943,3.593,4.185,5.972,7.733,5.972c0.672,0,1.354-0.085,2.035-0.264c4.273-1.121,6.829-5.495,5.708-9.769L338.905,72.325z"></path><path d="M81.795,40.09c4.565-3.641,7.72-9.041,8.359-15.309c1.259-12.363-7.741-23.405-20.105-24.663   C57.687-1.141,46.644,7.86,45.385,20.223c-0.637,6.255,1.356,12.169,5.078,16.651l30.972,3.154   C81.557,40.04,81.673,40.073,81.795,40.09z"></path><path d="M113.517,90.462c-0.006-0.038-0.019-0.074-0.025-0.112l23.395-4.116c4.352-0.766,7.259-4.914,6.493-9.265   c-0.765-4.352-4.91-7.259-9.265-6.493l-30.485,5.363l-16.007-27.73c-0.971-2.719-3.425-4.785-6.491-5.097l-38.436-3.913   c-0.558-0.057-1.106-0.049-1.642,0.01c-8.531,0.206-16.716,6.121-20.281,14.877c-2.321,5.699-5.203,19.342,8.883,36.884   l-2.359,23.176c-0.085,0.836-0.029,1.652,0.141,2.431c0.088,2.895,1.206,5.767,3.387,8.005l12.06,12.375H12   c-6.627,0-12,5.373-12,12s5.373,12,12,12h59.334c4.825,0,9.182-2.89,11.057-7.336s0.905-9.583-2.463-13.039l-9.039-9.275   l22.112-17.03l5.816,36.407c0.943,5.903,6.042,10.109,11.835,10.109c0.629,0,1.267-0.05,1.908-0.152   c6.544-1.045,11.002-7.198,9.956-13.743L113.517,90.462z M84.035,90.787l1.461-14.355l5.287,9.158L84.035,90.787z"></path><path d="M403.5,151.355h-51.445h-6.474H138.4l20.936-77.095c2.168-0.049,4.09-1.507,4.698-3.592l1.046-3.591   c25.768,6.596,56.227,10.195,84.125,12.119l7.245,44.16h-40.782c-6.903,0-12.5,5.597-12.5,12.5s5.597,12.5,12.5,12.5h55.5   c3.669,0,7.152-1.612,9.527-4.408c2.375-2.797,3.401-6.495,2.808-10.115l-6.536-39.84c19.389,2.29,32.221,4.588,48.891,0.315   l-4.556-17.363c-0.691-2.636-0.315-5.383,1.06-7.735s3.583-4.028,6.218-4.72c0.851-0.223,1.724-0.336,2.595-0.336   c4.629,0,8.683,3.131,9.86,7.613l3.344,12.746c4.907-5.644,6.282-12.589,4.937-17.997c-1.314-5.284-6.378-8.735-12.407-9.921   c-1.305-0.407-2.697-0.617-4.145-0.566c-1.061,0.033-97.808,2.934-160.691-12.962l0.164-0.562c0.372-1.278,0.223-2.628-0.422-3.802   c-0.644-1.173-1.703-2.024-2.981-2.396c-0.453-0.132-0.921-0.198-1.391-0.198c-2.213,0-4.189,1.48-4.809,3.602l-0.199,0.685   c-2.433-0.74-4.806-1.511-7.092-2.32c-6.508-2.306-13.651,1.1-15.957,7.607c-2.306,6.507,1.101,13.651,7.607,15.957   c2.729,0.967,5.553,1.884,8.452,2.76l-1.012,3.475c-0.372,1.278-0.223,2.628,0.421,3.801c0.392,0.714,0.951,1.29,1.607,1.73   l-21.169,77.951h-1.875c-3.032,0-5.5,2.468-5.5,5.5s2.468,5.5,5.5,5.5H403.5c3.032,0,5.5-2.468,5.5-5.5   S406.532,151.355,403.5,151.355z M157.313,68.711l8.2-28.163c0.247-0.849,1.04-1.44,1.928-1.44c0.186,0,0.372,0.026,0.553,0.079   c0.509,0.148,0.931,0.489,1.189,0.96s0.319,1.01,0.171,1.52l-8.201,28.164c-0.299,1.026-1.438,1.665-2.479,1.36   c-0.509-0.148-0.932-0.489-1.189-0.96C157.226,69.76,157.165,69.221,157.313,68.711z M403.5,159.355H133.417   c-1.379,0-2.5-1.121-2.5-2.5s1.121-2.5,2.5-2.5H403.5c1.379,0,2.5,1.121,2.5,2.5S404.879,159.355,403.5,159.355z"></path></g></svg>