<svg height='100px' width='100px'  xmlns:dc="http://purl.org/dc/elements/1.1/" xmlns:cc="http://creativecommons.org/ns#" xmlns:rdf="http://www.w3.org/1999/02/22-rdf-syntax-ns#" xmlns:svg="http://www.w3.org/2000/svg" xmlns="http://www.w3.org/2000/svg" xmlns:sodipodi="http://sodipodi.sourceforge.net/DTD/sodipodi-0.dtd" xmlns:inkscape="http://www.inkscape.org/namespaces/inkscape" fill="#000000" version="1.1" x="0px" y="0px" viewBox="0 0 100 100"><path style="opacity:1;color:#000000;fill:#000000;stroke:none;stroke-width:42.62503815000000200;marker:none;visibility:visible;display:inline;overflow:visible;enable-background:accumulate" d="M 50 14 C 43.776966 14 38.295321 17.180503 35.0625 22 L 23 22 C 19.710594 22 17 24.710594 17 28 L 17 80 C 17 83.289406 19.710594 86 23 86 L 77 86 C 80.289406 86 83 83.289406 83 80 L 83 28 C 83 24.710594 80.289406 22 77 22 L 73 22 A 2.0002 2.0002 0 1 0 73 26 L 77 26 C 78.142594 26 79 26.857406 79 28 L 79 80 C 79 81.142594 78.142594 82 77 82 L 23 82 C 21.857406 82 21 81.142594 21 80 L 21 28 C 21 26.857406 21.857406 26 23 26 L 33.0625 26 C 32.394155 27.879824 32 29.894592 32 32 C 32 41.917437 40.082563 50 50 50 C 59.917436 50 68 41.917437 68 32 C 68 22.082564 59.917436 14 50 14 z M 50 18 C 57.755676 18 64 24.244324 64 32 C 64 39.755676 57.755676 46 50 46 C 42.244324 46 36 39.755676 36 32 C 36 24.244324 42.244324 18 50 18 z M 43.78125 23.96875 A 2.0002 2.0002 0 0 0 42.59375 27.40625 L 46.15625 30.96875 C 46.068717 31.297742 46 31.643445 46 32 C 46 34.209139 47.790861 36 50 36 C 52.209139 36 54 34.209139 54 32 C 54 29.790861 52.209139 28 50 28 C 49.643445 28 49.297742 28.068717 48.96875 28.15625 L 45.40625 24.59375 A 2.0002 2.0002 0 0 0 43.96875 23.96875 A 2.0002 2.0002 0 0 0 43.78125 23.96875 z "></path></svg>